{
  "accessors": [
    {
      "bufferView": 0,
      "byteOffset": 0,
      "componentType": 5125,
      "count": 175248,
      "type": "SCALAR",
      "max": [140739],
      "min": [0]
    },
    {
      "bufferView": 1,
      "byteOffset": 0,
      "componentType": 5126,
      "count": 140740,
      "type": "VEC3",
      "max": [177.1999969482422, 177.1999969482422, 1502.5799560546875],
      "min": [-177.1999969482422, -177.1999969482422, -1502.5799560546875],
      "name": "POSITION"
    }
  ],
  "asset": { "generator": "Aspose.3D 22.1", "version": "2.0" },
  "buffers": [
    {
      "uri": "data:application/octet-stream;base64,",
      "byteLength": 2803976
    }
  ],
  "bufferViews": [
    { "buffer": 0, "byteOffset": 0, "byteLength": 700992, "target": 34963 },
    {
      "buffer": 0,
      "byteOffset": 700996,
      "byteLength": 2102976,
      "byteStride": 12,
      "target": 34962
    }
  ],
  "meshes": [
    {
      "primitives": [
        { "attributes": { "POSITION": 1 }, "indices": 0, "mode": 4 }
      ],
      "name": ""
    }
  ],
  "nodes": [{ "mesh": 0, "name": "" }],
  "scene": 0,
  "scenes": [{ "nodes": [0] }]
}
